<svg width="30" height="30" viewBox="0 0 30 30" fill="none" xmlns="http://www.w3.org/2000/svg">
<path d="M1 15C1 7.26801 7.26801 1 15 1V1C22.732 1 29 7.26801 29 15V15C29 22.732 22.732 29 15 29V29C7.26801 29 1 22.732 1 15V15Z" stroke="#DCDCDC"/>
<path d="M15 28.9998C22.732 28.9998 29 22.7317 29 14.9998C29 7.26777 22.732 0.999756 15 0.999756C7.26801 0.999756 1 7.26777 1 14.9998C1 22.7317 7.26801 28.9998 15 28.9998Z" fill="white"/>
<path d="M1 14.9998C1 7.26782 7.26806 0.999756 15 0.999756C22.7319 0.999756 29 7.26782 29 14.9998" fill="#FF012F"/>
</svg>
