<svg width="28" height="28" viewBox="0 0 28 28" fill="none" xmlns="http://www.w3.org/2000/svg">
<path d="M13.9998 27.9998C21.7317 27.9998 27.9997 21.7319 27.9997 14C27.9997 6.26807 21.7317 0.000139235 13.9998 0.000139235C6.26793 0.000139235 0 6.26807 0 14C0 21.7319 6.26793 27.9998 13.9998 27.9998Z" fill="white"/>
<path d="M2.89416 5.47533C1.79446 6.9061 0.965246 8.55518 0.482416 10.3467H7.76549L2.89416 5.47533Z" fill="#0052B4"/>
<path d="M27.5191 10.347C27.0362 8.55552 26.207 6.90644 25.1073 5.47567L20.2361 10.347H27.5191Z" fill="#0052B4"/>
<path d="M0.482416 17.6523C0.965301 19.4437 1.79452 21.0928 2.89416 22.5235L7.76534 17.6523H0.482416Z" fill="#0052B4"/>
<path d="M22.5234 2.89339C21.0926 1.79369 19.4436 0.964477 17.6521 0.481592V7.76462L22.5234 2.89339Z" fill="#0052B4"/>
<path d="M5.47649 25.1035C6.90727 26.2032 8.55635 27.0324 10.3478 27.5153V20.2323L5.47649 25.1035Z" fill="#0052B4"/>
<path d="M10.3477 0.481592C8.55629 0.964476 6.90721 1.79369 5.47649 2.89333L10.3477 7.76456V0.481592Z" fill="#0052B4"/>
<path d="M17.6521 27.5153C19.4436 27.0324 21.0926 26.2032 22.5234 25.1035L17.6521 20.2323V27.5153Z" fill="#0052B4"/>
<path d="M20.2361 17.6523L25.1073 22.5235C26.207 21.0928 27.0362 19.4437 27.5191 17.6523H20.2361Z" fill="#0052B4"/>
<path d="M27.8811 12.1738H15.826H15.8259V0.118506C15.2281 0.040687 14.6187 0 13.9998 0C13.3808 0 12.7715 0.040687 12.1738 0.118506V12.1737V12.1737H0.118506C0.040687 12.7715 0 13.3809 0 13.9998C0 14.6188 0.040687 15.2281 0.118506 15.8259H12.1737H12.1737V27.8811C12.7715 27.959 13.3808 27.9997 13.9998 27.9997C14.6187 27.9997 15.2281 27.959 15.8259 27.8811V15.826V15.8259H27.8811C27.959 15.2281 27.9997 14.6188 27.9997 13.9998C27.9997 13.3809 27.959 12.7715 27.8811 12.1738Z" fill="#D80027"/>
<path d="M17.6521 17.6532L23.8993 23.9004C24.1867 23.6131 24.4607 23.3129 24.7223 23.0016L19.3738 17.6531H17.6521V17.6532Z" fill="#D80027"/>
<path d="M10.3468 17.6531H10.3467L4.09956 23.9002C4.38677 24.1876 4.68706 24.4617 4.99834 24.7232L10.3468 19.3746V17.6531Z" fill="#D80027"/>
<path d="M10.3474 10.3473V10.3472L4.10023 4.09995C3.81291 4.38716 3.53882 4.68745 3.2773 4.99872L8.62584 10.3473H10.3474V10.3473Z" fill="#D80027"/>
<path d="M17.6521 10.349L23.8994 4.10164C23.6122 3.81431 23.3119 3.54022 23.0006 3.27877L17.6521 8.6273V10.349Z" fill="#D80027"/>
</svg>
